<svg>

  <symbol
    id="icon-home" 
    xmlns="http://www.w3.org/2000/svg" 
    height="24px" 
    viewBox="0 -960 960 960" 
    width="24px" 
    fill="inherit"
  >
    <path d="M240-200h120v-240h240v240h120v-360L480-740 240-560v360Zm-80 80v-480l320-240 320 240v480H520v-240h-80v240H160Zm320-350Z"/>
  </symbol>

  <symbol
    id="icon-about"  
    xmlns="http://www.w3.org/2000/svg" 
    height="24px" 
    viewBox="0 -960 960 960"
    width="24px" 
    fill="inherit"
  >
    <path d="M480-480q-66 0-113-47t-47-113q0-66 47-113t113-47q66 0 113 47t47 113q0 66-47 113t-113 47ZM160-160v-112q0-34 17.5-62.5T224-378q62-31 126-46.5T480-440q66 0 130 15.5T736-378q29 15 46.5 43.5T800-272v112H160Zm80-80h480v-32q0-11-5.5-20T700-306q-54-27-109-40.5T480-360q-56 0-111 13.5T260-306q-9 5-14.5 14t-5.5 20v32Zm240-320q33 0 56.5-23.5T560-640q0-33-23.5-56.5T480-720q-33 0-56.5 23.5T400-640q0 33 23.5 56.5T480-560Zm0-80Zm0 400Z"/>
  </symbol>

  <svg
    id="icon-projects"   
    xmlns="http://www.w3.org/2000/svg" 
    height="24px" 
    viewBox="0 -960 960 960" 
    width="24px" 
    fill="inherit"
  >
    <path d="m437-398 227-226-57-57-170 170-85-85-56 56 141 142ZM40-120v-80h880v80H40Zm120-120q-33 0-56.5-23.5T80-320v-440q0-33 23.5-56.5T160-840h640q33 0 56.5 23.5T880-760v440q0 33-23.5 56.5T800-240H160Zm0-80h640v-440H160v440Zm0 0v-440 440Z"/>
  </svg>

  <symbol
    id="icon-resume" 
    xmlns="http://www.w3.org/2000/svg" 
    height="24px" 
    viewBox="0 -960 960 960"
    width="24px" 
    fill="inherit"
  >
    <path d="M320-240h320v-80H320v80Zm0-160h320v-80H320v80ZM240-80q-33 0-56.5-23.5T160-160v-640q0-33 23.5-56.5T240-880h320l240 240v480q0 33-23.5 56.5T720-80H240Zm280-520v-200H240v640h480v-440H520ZM240-800v200-200 640-640Z"/>
  </symbol>

  <symbol 
    id="icon-link"
    xmlns="http://www.w3.org/2000/svg" 
    height="24px" 
    viewBox="0 -960 960 960" 
    width="24px" 
    fill="inherit"
  >
    <path d="M760-600q-57 0-99-34t-56-86H354q-11 42-41.5 72.5T240-606v251q52 14 86 56t34 99q0 66-47 113T200-40q-66 0-113-47T40-200q0-57 34-99t86-56v-251q-52-14-86-56t-34-98q0-66 47-113t113-47q56 0 98 34t56 86h251q14-52 56-86t99-34q66 0 113 47t47 113q0 66-47 113t-113 47ZM200-120q33 0 56.5-24t23.5-56q0-33-23.5-56.5T200-280q-32 0-56 23.5T120-200q0 32 24 56t56 24Zm0-560q33 0 56.5-23.5T280-760q0-33-23.5-56.5T200-840q-32 0-56 23.5T120-760q0 33 24 56.5t56 23.5ZM760-40q-66 0-113-47t-47-113q0-66 47-113t113-47q66 0 113 47t47 113q0 66-47 113T760-40Zm0-80q33 0 56.5-24t23.5-56q0-33-23.5-56.5T760-280q-33 0-56.5 23.5T680-200q0 32 23.5 56t56.5 24Zm0-560q33 0 56.5-23.5T840-760q0-33-23.5-56.5T760-840q-33 0-56.5 23.5T680-760q0 33 23.5 56.5T760-680ZM200-200Zm0-560Zm560 560Zm0-560Z"/>
  </symbol>

</svg>

